<svg width="22" height="20" viewBox="0 0 22 20" fill="none" xmlns="http://www.w3.org/2000/svg">
<path d="M20.47 2.35L19.13 1.79V10.82L21.56 4.96C21.97 3.94 21.5 2.77 20.47 2.35V2.35ZM0.970006 6.05L5.93001 18C6.07606 18.3636 6.32519 18.6765 6.64677 18.9004C6.96834 19.1243 7.34833 19.2493 7.74001 19.26C8.00001 19.26 8.27001 19.21 8.53001 19.1L15.9 16.05C16.65 15.74 17.11 15 17.13 14.26C17.14 14 17.09 13.71 17 13.45L12 1.5C11.8587 1.13402 11.6104 0.819061 11.2876 0.596117C10.9648 0.373172 10.5823 0.252568 10.19 0.25C9.93001 0.25 9.67001 0.31 9.42001 0.4L2.06001 3.45C1.57077 3.65035 1.18112 4.03678 0.976718 4.52433C0.772319 5.01189 0.769905 5.56066 0.970006 6.05V6.05ZM17.12 2.25C17.12 1.71957 16.9093 1.21086 16.5342 0.835786C16.1591 0.460714 15.6504 0.25 15.12 0.25H13.67L17.12 8.59" fill="#EDEDED"/>
</svg>
