<svg width="234" height="221" viewBox="0 0 234 221" fill="none" xmlns="http://www.w3.org/2000/svg">
<path d="M233.128 15.312L219.016 1.77599C214.696 2.63999 204.328 3.504 198.856 3.504H33.544C22.888 3.504 10.792 2.352 0.712002 0.911997V27.12C11.944 25.968 22.888 25.392 33.544 25.392H197.704C188.2 43.248 161.128 74.64 134.632 89.904L153.64 105.168C186.472 82.416 213.832 45.264 225.352 25.68C227.368 22.512 231.112 18.192 233.128 15.312ZM118.216 53.328H92.296C93.16 60.816 93.448 67.152 93.448 74.064C93.448 122.16 87.112 163.056 42.472 190.416C34.408 196.176 24.616 200.784 16.552 203.376L37.864 220.656C111.304 184.08 118.216 131.376 118.216 53.328Z" fill="#EDEDED"/>
</svg>
