<svg width="244" height="241" viewBox="0 0 244 241" fill="none" xmlns="http://www.w3.org/2000/svg">
<path d="M88.368 0.887993H62.736C63.6 5.78398 64.176 15.576 64.176 21.336C64.176 26.52 63.888 39.192 63.888 54.168C55.824 54.744 48.336 55.032 41.712 55.032C31.056 55.032 20.688 54.744 4.848 52.728L5.424 74.616C15.216 75.768 25.872 76.056 42.288 76.056C48.336 76.056 55.536 75.768 63.6 75.192C63.312 87.864 63.312 101.4 63.312 112.92C63.312 118.104 63.312 123.864 63.312 129.336C30.192 143.448 0.240001 168.504 0.240001 192.408C0.240001 218.04 37.68 240.216 60.144 240.216C75.696 240.216 85.488 231.576 85.488 204.792C85.488 192.408 84.912 166.776 84.336 142.296C105.072 135.096 125.52 131.064 147.12 131.064C174.48 131.064 196.656 144.312 196.656 168.792C196.656 195.288 173.616 208.824 148.272 213.72C137.616 216.024 125.232 216.024 114.576 215.736L122.64 239.064C132.72 238.488 145.392 237.912 158.352 235.032C197.808 225.528 219.696 203.352 219.696 168.504C219.696 133.944 189.456 111.192 147.408 111.192C128.4 111.192 105.936 114.936 84.048 121.848C84.048 118.392 84.048 114.936 84.048 111.768C84.048 100.248 84.336 86.424 84.624 72.888C105.648 70.584 128.112 66.84 145.104 62.808L144.528 40.344C128.112 45.24 106.224 49.272 85.2 51.864C85.488 38.904 86.064 27.672 86.352 20.76C86.64 14.136 87.504 6.07199 88.368 0.887993ZM177.648 32.856L167.28 50.136C185.712 59.928 217.68 79.8 231.792 93.336L243.6 74.904C229.488 63.384 198.096 43.8 177.648 32.856ZM22.704 191.256C22.704 178.296 40.272 161.592 63.888 150.648C64.176 171.672 64.752 191.256 64.752 201.624C64.752 211.128 60.72 215.736 54.096 215.736C42.864 215.736 22.704 204.504 22.704 191.256Z" fill="#EDEDED"/>
</svg>
