<svg width="77" height="77" viewBox="0 0 77 77" fill="none" xmlns="http://www.w3.org/2000/svg">
<path d="M19.25 60.9583C19.25 62.6601 19.926 64.2922 21.1294 65.4956C22.3327 66.699 23.9648 67.375 25.6666 67.375H51.3333C53.0351 67.375 54.6672 66.699 55.8706 65.4956C57.0739 64.2922 57.75 62.6601 57.75 60.9583V22.4583H19.25V60.9583ZM27.1425 38.115L31.6662 33.5912L38.5 40.3929L45.3016 33.5912L49.8254 38.115L43.0237 44.9167L49.8254 51.7183L45.3016 56.2421L38.5 49.4404L31.6983 56.2421L27.1745 51.7183L33.9762 44.9167L27.1425 38.115ZM49.7291 12.8333L46.5208 9.625H30.4791L27.2708 12.8333H16.0416V19.25H60.9583V12.8333H49.7291Z" fill="#EDEDED"/>
</svg>
