<svg width="85" height="85" viewBox="0 0 85 85" xmlns="http://www.w3.org/2000/svg">
<path d="M27.3416 58.2808L33.5785 56.4817L71.1308 18.4796C71.427 18.1761 71.5919 17.7682 71.5899 17.3441C71.588 16.92 71.4192 16.5137 71.1202 16.2129L68.8712 13.9392C68.7259 13.7899 68.5523 13.671 68.3605 13.5895C68.1687 13.508 67.9626 13.4655 67.7543 13.4645C67.5459 13.4635 67.3394 13.504 67.1469 13.5837C66.9544 13.6634 66.7796 13.7806 66.6329 13.9286L29.1798 51.8315L27.3381 58.2773L27.3416 58.2808ZM73.3231 9.43419L75.5721 11.7115C78.6745 14.8529 78.7029 19.9211 75.6287 23.0306L36.9325 62.1944L23.6016 66.0336C22.7878 66.2614 21.9167 66.157 21.1797 65.7433C20.4427 65.3297 19.8999 64.6405 19.6704 63.8271C19.4996 63.2423 19.4972 62.6212 19.6633 62.035L23.5414 48.435L62.135 9.37398C62.8688 8.63504 63.7425 8.04962 64.705 7.65186C65.6674 7.25409 66.6995 7.05195 67.7409 7.05723C68.7823 7.0625 69.8123 7.27509 70.7707 7.68258C71.7291 8.09007 72.5967 8.68431 73.3231 9.43065V9.43419ZM32.5266 13.5177C34.2833 13.5177 35.7071 14.9592 35.7071 16.7371C35.7099 17.1574 35.6298 17.5741 35.4714 17.9634C35.3131 18.3527 35.0795 18.707 34.7841 19.006C34.4888 19.305 34.1374 19.5428 33.75 19.7059C33.3626 19.869 32.9469 19.9542 32.5266 19.9565H19.805C16.2916 19.9565 13.4441 22.8394 13.4441 26.3917V65.0171C13.4441 68.5729 16.2916 71.4558 19.805 71.4558H57.97C61.4833 71.4558 64.3343 68.5729 64.3343 65.0171V52.1431C64.3343 50.3652 65.7581 48.9238 67.5148 48.9238C69.2714 48.9238 70.6952 50.3652 70.6952 52.1467V65.0171C70.6952 72.1288 64.9966 77.8946 57.97 77.8946H19.805C12.7783 77.8946 7.08331 72.1288 7.08331 65.0171V26.3917C7.08331 19.2836 12.7783 13.5177 19.805 13.5177H32.5266Z"/>
</svg>
