<svg width="74" height="74" viewBox="0 0 74 74" fill="none" xmlns="http://www.w3.org/2000/svg">
<path d="M15.0312 71.6875H10.4062C9.48628 71.6875 8.60399 71.322 7.95347 70.6715C7.30296 70.021 6.9375 69.1387 6.9375 68.2188V47.4062C6.9375 46.4863 7.30296 45.604 7.95347 44.9535C8.60399 44.303 9.48628 43.9375 10.4062 43.9375H15.0312C15.9512 43.9375 16.8335 44.303 17.484 44.9535C18.1345 45.604 18.5 46.4863 18.5 47.4062V68.2188C18.5 69.1387 18.1345 70.021 17.484 70.6715C16.8335 71.322 15.9512 71.6875 15.0312 71.6875V71.6875Z" fill="#D6D6D6"/>
<path d="M47.4062 71.6875H42.7812C41.8613 71.6875 40.979 71.322 40.3285 70.6715C39.678 70.021 39.3125 69.1387 39.3125 68.2188V33.5312C39.3125 32.6113 39.678 31.729 40.3285 31.0785C40.979 30.428 41.8613 30.0625 42.7812 30.0625H47.4062C48.3262 30.0625 49.2085 30.428 49.859 31.0785C50.5095 31.729 50.875 32.6113 50.875 33.5312V68.2188C50.875 69.1387 50.5095 70.021 49.859 70.6715C49.2085 71.322 48.3262 71.6875 47.4062 71.6875V71.6875Z" fill="#D6D6D6"/>
<path d="M63.5938 71.6875H58.9688C58.0488 71.6875 57.1665 71.322 56.516 70.6715C55.8655 70.021 55.5 69.1387 55.5 68.2188V17.3438C55.5 16.4238 55.8655 15.5415 56.516 14.891C57.1665 14.2405 58.0488 13.875 58.9688 13.875H63.5938C64.5137 13.875 65.396 14.2405 66.0465 14.891C66.697 15.5415 67.0625 16.4238 67.0625 17.3438V68.2188C67.0625 69.1387 66.697 70.021 66.0465 70.6715C65.396 71.322 64.5137 71.6875 63.5938 71.6875V71.6875Z" fill="#D6D6D6"/>
<path d="M31.2188 71.6875H26.5938C25.6738 71.6875 24.7915 71.322 24.141 70.6715C23.4905 70.021 23.125 69.1387 23.125 68.2188V5.78125C23.125 4.86128 23.4905 3.97899 24.141 3.32847C24.7915 2.67796 25.6738 2.3125 26.5938 2.3125H31.2188C32.1387 2.3125 33.021 2.67796 33.6715 3.32847C34.322 3.97899 34.6875 4.86128 34.6875 5.78125V68.2188C34.6875 69.1387 34.322 70.021 33.6715 70.6715C33.021 71.322 32.1387 71.6875 31.2188 71.6875V71.6875Z" fill="#D6D6D6"/>
</svg>
