<svg width="77" height="72" viewBox="0 0 77 72" xmlns="http://www.w3.org/2000/svg">
<path d="M40.7907 17.0049L42.5078 22.2833C44.1333 20.9016 46.0199 19.8607 48.0556 19.2225C50.3271 18.4833 52.333 18.0675 54.1463 17.8288L52.4908 12.7353C50.4263 13.0326 48.3912 13.5066 46.4078 14.1521C44.3978 14.8036 42.5024 15.7662 40.7907 17.0049V17.0049ZM44.3596 27.9967L46.0767 33.275C47.7022 31.8933 49.5889 30.8525 51.6246 30.2143C53.8961 29.4751 55.9019 29.0593 57.7153 28.8206L56.0598 23.727C53.9953 24.0243 51.9601 24.4983 49.9768 25.1438C47.9658 25.793 46.07 26.7558 44.3596 27.9967V27.9967ZM47.9324 38.9846L49.6495 44.2629C51.275 42.8812 53.1617 41.8404 55.1974 41.2022C57.4689 40.463 59.4747 40.0472 61.2881 39.8085L59.6326 34.7149C57.5681 35.0122 55.5329 35.4862 53.5496 36.1317C51.5386 36.7809 49.6428 37.7437 47.9324 38.9846ZM20.7437 47.3468L22.3992 52.4403C24.234 51.4479 26.157 50.6282 28.1434 49.9917C30.1657 49.3132 32.3036 49.0475 34.4305 49.2102L32.7134 43.9318C30.6018 43.9348 28.5038 44.2687 26.4956 44.9213C24.5121 45.5627 22.5876 46.3742 20.7437 47.3468V47.3468ZM13.602 25.3671L15.2575 30.4607C17.093 29.4699 19.0158 28.6502 21.0017 28.0121C23.024 27.3336 25.1619 27.0678 27.2887 27.2305L25.5755 21.9483C23.4625 21.953 21.3633 22.2882 19.3539 22.9416C17.3703 23.5831 15.4459 24.3946 13.602 25.3671V25.3671ZM17.1709 36.3589L18.8264 41.4524C20.6612 40.46 22.5842 39.6403 24.5706 39.0038C26.5929 38.3253 28.7308 38.0596 30.8577 38.2223L29.1444 32.9401C27.0329 32.9431 24.9348 33.277 22.9267 33.9295C20.9418 34.5722 19.016 35.385 17.1709 36.3589V36.3589ZM42.5963 2.42883C37.5382 4.04484 33.3171 7.58291 30.8423 12.281C26.0797 9.93569 20.5864 9.55546 15.5462 11.2222C5.83266 14.3792 0.265564 21.3362 0.265564 21.3362L16.0313 69.7961C16.5164 71.2861 18.5184 71.6326 19.4116 70.3467C21.3328 67.5785 25.0326 63.9634 31.9511 61.715C38.5654 59.5667 43.3817 61.9229 46.0228 63.9403C47.07 64.7411 48.5715 64.1713 48.9565 62.9085C49.9267 59.7245 52.4485 55.0545 59.005 52.9254C65.9312 50.6732 71.0517 51.4278 74.2356 52.5404C75.7179 53.0563 77.1231 51.6087 76.6419 50.1188L60.9031 1.63188C60.9031 1.63188 52.3099 -0.724324 42.5963 2.42883ZM42.1613 55.7359C38.209 54.5464 33.9859 54.6056 30.0684 55.9053C25.2521 57.4684 21.8795 59.559 19.6773 61.3107L7.18401 22.88C8.56231 21.5017 11.754 18.8683 17.4327 17.0242C22.7804 15.2878 27.1655 16.7739 30.0569 18.4795L42.1613 55.7359ZM68.7032 45.3833C65.8888 45.2601 61.931 45.5527 57.1147 47.1196C53.1814 48.3693 49.7299 50.803 47.2317 54.0881L35.1273 16.8317C36.4594 13.7517 39.1313 9.97097 44.4828 8.23462C50.1577 6.39048 54.2888 6.64458 56.2138 6.94873L68.7032 45.3833V45.3833Z"/>
</svg>
