<svg width="53" height="54" viewBox="0 0 53 54" fill="none" xmlns="http://www.w3.org/2000/svg">
<path d="M11.61 0.239998L9.09 0.179999C9.12 0.539998 9.06 1.08 9.03 1.62C8.97 2.28 8.88 3.06 8.79 3.93C8.1 3.96 7.44 3.96 6.75 3.96C5.46 3.96 2.85 3.75 1.8 3.57L1.86 5.82C3.09 5.91 5.43 6.03 6.72 6.03C7.32 6.03 7.92 6.03 8.55 6C8.43 7.41 8.28 8.91 8.22 10.41C4.08 12.33 0.720001 16.26 0.720001 20.13C0.720001 22.68 2.28 23.91 4.26 23.91C5.91 23.91 7.71 23.25 9.36 22.26C9.51 22.86 9.66 23.43 9.84 23.94L12 23.28C11.76 22.53 11.52 21.72 11.28 20.85C13.83 18.69 16.26 15.36 17.97 11.1C20.76 11.91 22.29 13.95 22.29 16.23C22.29 20.13 18.93 22.92 13.5 23.49L14.79 25.5C21.75 24.39 24.6 20.67 24.6 16.35C24.6 13.05 22.38 10.29 18.63 9.3C18.63 9.24 18.66 9.21 18.66 9.18C18.81 8.7 19.08 7.89 19.26 7.47L16.89 6.87C16.86 7.38 16.71 8.16 16.56 8.61C16.53 8.73 16.5 8.82 16.47 8.91C16.11 8.88 15.75 8.88 15.36 8.88C13.83 8.88 12 9.15 10.32 9.63C10.41 8.37 10.5 7.11 10.65 5.94C14.31 5.76 18.3 5.34 21.45 4.8L21.42 2.58C18.36 3.3 14.7 3.69 10.89 3.87C11.01 3 11.13 2.22 11.25 1.59C11.34 1.17 11.46 0.629999 11.61 0.239998ZM10.23 12.96C10.23 12.54 10.23 12.15 10.26 11.73C11.64 11.22 13.38 10.77 15.33 10.77C15.51 10.77 15.69 10.77 15.84 10.77C14.58 14.13 12.75 16.56 10.74 18.45C10.44 16.71 10.23 14.88 10.23 12.96ZM3 19.74C3 17.28 5.22 14.31 8.13 12.66C8.13 12.84 8.13 13.02 8.13 13.2C8.13 15.45 8.43 17.88 8.85 20.01C7.32 21.09 5.88 21.6 4.71 21.6C3.57 21.6 3 20.97 3 19.74ZM51.48 3.72L50.01 2.31C49.56 2.4 48.48 2.49 47.91 2.49H30.69C29.58 2.49 28.32 2.37 27.27 2.22V4.95C28.44 4.83 29.58 4.77 30.69 4.77H47.79C46.8 6.63 43.98 9.9 41.22 11.49L43.2 13.08C46.62 10.71 49.47 6.84 50.67 4.8C50.88 4.47 51.27 4.02 51.48 3.72ZM39.51 7.68H36.81C36.9 8.46 36.93 9.12 36.93 9.84C36.93 14.85 36.27 19.11 31.62 21.96C30.78 22.56 29.76 23.04 28.92 23.31L31.14 25.11C38.79 21.3 39.51 15.81 39.51 7.68ZM17.25 29.51H14.46C14.58 30.14 14.64 30.89 14.73 32.03C14.76 32.72 14.79 33.74 14.82 34.94H3.9C2.97 34.94 2.01 34.85 1.14 34.76V37.31C2.07 37.25 2.94 37.22 3.96 37.22H13.83C11.46 40.82 6.12 45.8 0.0300009 48.77L1.77 50.72C7.14 47.87 12.39 43.01 14.88 39.47C14.94 43.49 14.97 47.96 14.97 50.36C14.97 51.17 14.73 51.56 13.86 51.56C12.75 51.56 11.07 51.44 9.63 51.2L9.84 53.66C11.31 53.78 13.08 53.84 14.64 53.84C16.44 53.84 17.37 53 17.37 51.44C17.34 47.69 17.25 41.72 17.16 37.22H21.93C22.65 37.22 23.7 37.25 24.39 37.28V34.76C23.79 34.82 22.62 34.94 21.84 34.94H17.13C17.1 33.74 17.07 32.72 17.07 32.03C17.07 31.19 17.13 30.35 17.25 29.51ZM35.88 29.03H33.21C33.3 29.54 33.36 30.56 33.36 31.16C33.36 31.7 33.33 33.02 33.33 34.58C32.49 34.64 31.71 34.67 31.02 34.67C29.91 34.67 28.83 34.64 27.18 34.43L27.24 36.71C28.26 36.83 29.37 36.86 31.08 36.86C31.71 36.86 32.46 36.83 33.3 36.77C33.27 38.09 33.27 39.5 33.27 40.7C33.27 41.24 33.27 41.84 33.27 42.41C29.82 43.88 26.7 46.49 26.7 48.98C26.7 51.65 30.6 53.96 32.94 53.96C34.56 53.96 35.58 53.06 35.58 50.27C35.58 48.98 35.52 46.31 35.46 43.76C37.62 43.01 39.75 42.59 42 42.59C44.85 42.59 47.16 43.97 47.16 46.52C47.16 49.28 44.76 50.69 42.12 51.2C41.01 51.44 39.72 51.44 38.61 51.41L39.45 53.84C40.5 53.78 41.82 53.72 43.17 53.42C47.28 52.43 49.56 50.12 49.56 46.49C49.56 42.89 46.41 40.52 42.03 40.52C40.05 40.52 37.71 40.91 35.43 41.63C35.43 41.27 35.43 40.91 35.43 40.58C35.43 39.38 35.46 37.94 35.49 36.53C37.68 36.29 40.02 35.9 41.79 35.48L41.73 33.14C40.02 33.65 37.74 34.07 35.55 34.34C35.58 32.99 35.64 31.82 35.67 31.1C35.7 30.41 35.79 29.57 35.88 29.03ZM45.18 32.36L44.1 34.16C46.02 35.18 49.35 37.25 50.82 38.66L52.05 36.74C50.58 35.54 47.31 33.5 45.18 32.36ZM29.04 48.86C29.04 47.51 30.87 45.77 33.33 44.63C33.36 46.82 33.42 48.86 33.42 49.94C33.42 50.93 33 51.41 32.31 51.41C31.14 51.41 29.04 50.24 29.04 48.86Z" fill="#D6D6D6"/>
</svg>
