<?xml version="1.0" encoding="utf-8"?>
<!-- Generator: Adobe Illustrator 25.0.0, SVG Export Plug-In . SVG Version: 6.00 Build 0)  -->
<svg version="1.1" id="Calque_1" xmlns="http://www.w3.org/2000/svg" xmlns:xlink="http://www.w3.org/1999/xlink" x="0px" y="0px"
	 viewBox="0 0 74 74" style="enable-background:new 0 0 74 74;" xml:space="preserve">
<style type="text/css">
	.st0{fill:#D6D6D6;}
</style>
<path class="st0" d="M13.7,71.7h-2.8c-0.6,0-1.1-0.4-1.5-1c-0.4-0.7-0.6-1.5-0.6-2.5V47.4c0-0.9,0.2-1.8,0.6-2.5
	c0.4-0.7,0.9-1,1.5-1h2.8c0.6,0,1.1,0.4,1.5,1c0.4,0.7,0.6,1.5,0.6,2.5v20.8c0,0.9-0.2,1.8-0.6,2.5S14.3,71.7,13.7,71.7L13.7,71.7z"
	/>
<path class="st0" d="M45.8,71.7H43c-0.6,0-1.1-0.4-1.5-1c-0.4-0.7-0.6-1.5-0.6-2.5V33.5c0-0.9,0.2-1.8,0.6-2.5c0.4-0.7,0.9-1,1.5-1
	h2.8c0.6,0,1.1,0.4,1.5,1c0.4,0.7,0.6,1.5,0.6,2.5v34.7c0,0.9-0.2,1.8-0.6,2.5S46.3,71.7,45.8,71.7L45.8,71.7z"/>
<path class="st0" d="M63.1,71.7h-2.8c-0.6,0-1.1-0.4-1.5-1c-0.4-0.7-0.6-1.5-0.6-2.5V17.3c0-0.9,0.2-1.8,0.6-2.5
	c0.4-0.7,0.9-1,1.5-1h2.8c0.6,0,1.1,0.4,1.5,1c0.4,0.7,0.6,1.5,0.6,2.5v50.9c0,0.9-0.2,1.8-0.6,2.5S63.6,71.7,63.1,71.7L63.1,71.7z"
	/>
<path class="st0" d="M29.8,72H27c-0.6,0-1.1-0.4-1.5-1c-0.4-0.7-0.6-1.5-0.6-2.5V6.1c0-0.9,0.2-1.8,0.6-2.5c0.4-0.7,0.9-1,1.5-1h2.8
	c0.6,0,1.1,0.4,1.5,1c0.4,0.7,0.6,1.5,0.6,2.5v62.4c0,0.9-0.2,1.8-0.6,2.5C30.8,71.7,30.3,72,29.8,72L29.8,72z"/>
</svg>
