<svg width="77" height="77" viewBox="0 0 77 77" xmlns="http://www.w3.org/2000/svg">
<path d="M40.7907 20.0049L42.5078 25.2833C44.1333 23.9016 46.0199 22.8607 48.0556 22.2225C50.3271 21.4833 52.333 21.0675 54.1463 20.8288L52.4908 15.7353C50.4263 16.0326 48.3912 16.5066 46.4078 17.1521C44.3978 17.8036 42.5024 18.7662 40.7907 20.0049ZM44.3596 30.9967L46.0767 36.275C47.7022 34.8933 49.5889 33.8525 51.6246 33.2143C53.8961 32.4751 55.9019 32.0593 57.7153 31.8206L56.0598 26.727C53.9953 27.0243 51.9601 27.4983 49.9768 28.1438C47.9658 28.793 46.07 29.7558 44.3596 30.9967ZM47.9324 41.9846L49.6495 47.2629C51.275 45.8812 53.1617 44.8404 55.1974 44.2022C57.4689 43.463 59.4747 43.0472 61.2881 42.8085L59.6326 37.7149C57.5681 38.0122 55.5329 38.4862 53.5496 39.1317C51.5386 39.7809 49.6428 40.7437 47.9324 41.9846ZM20.7437 50.3468L22.3992 55.4403C24.234 54.4479 26.157 53.6282 28.1434 52.9917C30.1657 52.3132 32.3036 52.0475 34.4305 52.2102L32.7134 46.9318C30.6018 46.9348 28.5038 47.2687 26.4956 47.9213C24.5121 48.5627 22.5876 49.3742 20.7437 50.3468ZM13.602 28.3671L15.2575 33.4607C17.093 32.4699 19.0158 31.6502 21.0017 31.0121C23.024 30.3336 25.1618 30.0678 27.2887 30.2305L25.5755 24.9483C23.4625 24.953 21.3633 25.2882 19.3539 25.9416C17.3703 26.5831 15.4459 27.3946 13.602 28.3671ZM17.1709 39.3589L18.8264 44.4524C20.6612 43.46 22.5842 42.6403 24.5706 42.0038C26.5929 41.3253 28.7308 41.0596 30.8577 41.2223L29.1444 35.9401C27.0329 35.9431 24.9348 36.277 22.9267 36.9295C20.9418 37.5722 19.016 38.385 17.1709 39.3589ZM42.5963 5.42883C37.5382 7.04484 33.3171 10.5829 30.8423 15.281C26.0797 12.9357 20.5864 12.5555 15.5462 14.2222C5.83266 17.3792 0.265564 24.3362 0.265564 24.3362L16.0313 72.7961C16.5164 74.2861 18.5184 74.6326 19.4116 73.3467C21.3328 70.5785 25.0326 66.9634 31.9511 64.715C38.5654 62.5667 43.3817 64.9229 46.0228 66.9403C47.07 67.7411 48.5715 67.1713 48.9565 65.9085C49.9267 62.7245 52.4485 58.0545 59.005 55.9254C65.9312 53.6732 71.0517 54.4278 74.2356 55.5404C75.7179 56.0563 77.1231 54.6087 76.6419 53.1188L60.9031 4.63188C60.9031 4.63188 52.3099 2.27568 42.5963 5.42883ZM42.1613 58.7359C38.209 57.5464 33.9859 57.6055 30.0684 58.9053C25.2521 60.4684 21.8795 62.559 19.6773 64.3107L7.18401 25.88C8.56231 24.5017 11.754 21.8683 17.4327 20.0242C22.7804 18.2878 27.1655 19.7739 30.0569 21.4795L42.1613 58.7359ZM68.7032 48.3833C65.8888 48.2601 61.931 48.5527 57.1147 50.1196C53.1814 51.3693 49.7299 53.803 47.2317 57.0881L35.1273 19.8317C36.4594 16.7517 39.1313 12.971 44.4828 11.2346C50.1577 9.39047 54.2888 9.64458 56.2138 9.94873L68.7032 48.3833Z"/>
</svg>
