<svg width="40" height="41" viewBox="0 0 40 41" fill="none" xmlns="http://www.w3.org/2000/svg">
<path fill-rule="evenodd" clip-rule="evenodd" d="M20 0.791016C9.36875 0.791016 0.75 9.61497 0.75 20.4993C0.75 31.3837 9.36875 40.2077 20 40.2077C30.6312 40.2077 39.25 31.3837 39.25 20.4993C39.25 9.61497 30.6312 0.791016 20 0.791016ZM19.125 9.74935C18.6609 9.74935 18.2158 9.93811 17.8876 10.2741C17.5594 10.6101 17.375 11.0658 17.375 11.541C17.375 12.0162 17.5594 12.4719 17.8876 12.8079C18.2158 13.1439 18.6609 13.3327 19.125 13.3327H20C20.4641 13.3327 20.9092 13.1439 21.2374 12.8079C21.5656 12.4719 21.75 12.0162 21.75 11.541C21.75 11.0658 21.5656 10.6101 21.2374 10.2741C20.9092 9.93811 20.4641 9.74935 20 9.74935H19.125ZM16.5 16.916C16.0359 16.916 15.5908 17.1048 15.2626 17.4408C14.9344 17.7768 14.75 18.2325 14.75 18.7077C14.75 19.1829 14.9344 19.6386 15.2626 19.9746C15.5908 20.3106 16.0359 20.4993 16.5 20.4993H18.25V25.8743H16.5C16.0359 25.8743 15.5908 26.0631 15.2626 26.3991C14.9344 26.7351 14.75 27.1908 14.75 27.666C14.75 28.1412 14.9344 28.5969 15.2626 28.9329C15.5908 29.2689 16.0359 29.4577 16.5 29.4577H23.5C23.9641 29.4577 24.4092 29.2689 24.7374 28.9329C25.0656 28.5969 25.25 28.1412 25.25 27.666C25.25 27.1908 25.0656 26.7351 24.7374 26.3991C24.4092 26.0631 23.9641 25.8743 23.5 25.8743H21.75V18.7077C21.75 18.2325 21.5656 17.7768 21.2374 17.4408C20.9092 17.1048 20.4641 16.916 20 16.916H16.5Z" fill="#3C3430"/>
</svg>
