<?xml version="1.0" standalone="no"?>
<!DOCTYPE svg PUBLIC "-//W3C//DTD SVG 20010904//EN"
 "http://www.w3.org/TR/2001/REC-SVG-20010904/DTD/svg10.dtd">
<svg version="1.0" xmlns="http://www.w3.org/2000/svg"
 width="1048.000000pt" height="1014.000000pt" viewBox="0 0 1048.000000 1014.000000"
 preserveAspectRatio="xMidYMid meet">

<g transform="translate(0.000000,1014.000000) scale(0.100000,-0.100000)" stroke="none">
<path d="M675 10129 c-168 -26 -316 -100 -436 -219 -101 -100 -158 -191 -202
-322 -28 -85 -30 -105 -31 -228 -1 -113 3 -148 22 -214 15 -51 188 -420 492
-1045 295 -608 474 -989 484 -1028 34 -137 5 -105 949 -1050 l881 -882 -24
-28 c-13 -15 -77 -82 -141 -148 -362 -374 -769 -842 -1092 -1257 -764 -981
-1222 -1844 -1297 -2442 -17 -135 -9 -338 19 -446 103 -400 436 -641 884 -640
573 1 1435 419 2462 1194 458 346 924 745 1396 1197 l186 177 1219 -1219 c914
-915 1240 -1235 1304 -1280 478 -342 1117 -323 1578 47 43 34 176 162 297 285
281 285 358 398 440 642 139 416 52 885 -228 1232 -22 28 -622 633 -1334 1345
-711 712 -1293 1298 -1293 1302 0 4 35 62 79 130 317 497 539 962 636 1333
l23 90 99 -3 c196 -7 389 39 583 139 269 139 503 352 658 599 63 100 154 296
231 498 39 100 92 224 118 274 88 171 225 285 443 369 170 65 182 71 250 136
156 146 193 360 96 551 -53 105 -138 175 -288 239 -334 142 -713 250 -1063
303 -177 27 -524 38 -687 21 -557 -58 -998 -312 -1280 -736 -74 -111 -194
-356 -241 -490 -70 -200 -116 -483 -103 -626 l6 -66 -63 -13 c-87 -17 -361
-108 -491 -164 -255 -110 -540 -263 -845 -453 l-183 -115 -972 969 c-1055
1053 -1014 1016 -1158 1048 -45 9 -335 146 -1021 479 -648 316 -985 474 -1041
490 -95 28 -234 39 -321 25z m996 -1369 c293 -143 535 -262 537 -265 12 -12
-24 -124 -66 -208 -81 -163 -227 -283 -421 -346 -35 -12 -68 -21 -73 -21 -5 0
-24 33 -42 73 -19 39 -140 289 -269 555 -169 346 -231 481 -217 477 10 -3 258
-123 551 -265z m7206 89 c43 -6 79 -12 81 -13 1 -2 -23 -40 -54 -86 -81 -121
-134 -232 -251 -525 -57 -143 -121 -289 -143 -325 -75 -128 -184 -226 -324
-291 -62 -29 -74 -31 -134 -26 -141 13 -284 118 -333 245 -19 47 -22 76 -22
162 1 127 29 232 103 387 88 186 173 288 299 363 78 46 219 95 311 108 92 13
374 14 467 1z m-2791 -3951 c2748 -2750 3064 -3069 3085 -3118 20 -46 24 -71
24 -155 0 -153 -14 -175 -254 -416 -129 -130 -215 -207 -250 -227 -71 -40
-169 -57 -244 -43 -129 24 64 -163 -3219 3119 l-3057 3056 107 56 c165 85 255
152 398 295 142 141 222 251 296 404 24 49 45 90 48 90 3 1 1383 -1377 3066
-3061z m964 2033 c0 -110 -102 -395 -239 -666 -87 -171 -267 -485 -280 -485
-3 0 -156 150 -339 333 l-332 332 127 76 c436 261 808 418 1056 448 4 1 7 -17
7 -38z m-3017 -2989 l538 -538 -223 -211 c-579 -547 -1116 -989 -1638 -1350
-601 -415 -1136 -681 -1462 -728 -48 -7 -48 -7 -48 21 0 46 46 222 86 330 47
128 172 387 267 556 328 581 851 1278 1467 1958 107 118 469 500 473 500 1 0
244 -242 540 -538z"/>
</g>
</svg>
