<?xml version="1.0" standalone="no"?>
<!DOCTYPE svg PUBLIC "-//W3C//DTD SVG 20010904//EN"
 "http://www.w3.org/TR/2001/REC-SVG-20010904/DTD/svg10.dtd">
<svg version="1.0" xmlns="http://www.w3.org/2000/svg"
 width="1051.000000pt" height="1018.000000pt" viewBox="0 0 1051.000000 1018.000000"
 preserveAspectRatio="xMidYMid meet">

<g transform="translate(0.000000,1018.000000) scale(0.100000,-0.100000)" stroke="none">
<path d="M645 10160 c-61 -13 -124 -36 -195 -71 -92 -46 -116 -64 -200 -148
-54 -54 -111 -124 -133 -161 -110 -189 -137 -443 -70 -655 8 -27 226 -484 483
-1015 276 -570 474 -991 484 -1028 36 -138 8 -107 944 -1044 l876 -877 -140
-146 c-1239 -1305 -2047 -2482 -2318 -3378 -190 -627 -45 -1128 389 -1342 480
-236 1185 -53 2174 563 664 414 1503 1086 2177 1744 72 71 135 128 140 128 5
0 560 -551 1234 -1224 1291 -1289 1272 -1271 1455 -1364 189 -95 370 -136 595
-136 166 0 250 12 403 60 243 77 365 162 670 463 264 260 341 355 421 511 102
199 146 384 146 610 0 282 -72 516 -233 755 -52 77 -253 283 -1373 1405
l-1313 1315 73 115 c307 482 533 962 625 1325 l28 110 94 -3 c192 -7 387 40
579 139 269 139 503 352 658 599 63 100 154 296 231 498 39 100 92 224 118
274 88 171 225 285 443 369 170 65 182 71 250 136 156 146 193 360 96 551 -53
105 -138 175 -288 239 -334 142 -713 250 -1063 303 -177 27 -524 38 -687 21
-557 -58 -998 -312 -1280 -736 -74 -111 -194 -356 -241 -490 -69 -197 -116
-483 -104 -622 l6 -61 -42 -7 c-78 -13 -278 -75 -425 -131 -272 -104 -672
-312 -982 -511 l-125 -80 -970 967 c-1052 1048 -1011 1011 -1156 1044 -44 11
-361 160 -1019 479 -525 255 -984 474 -1020 485 -140 46 -269 52 -415 22z
m1587 -1668 c12 -12 -20 -109 -65 -197 -63 -123 -164 -219 -298 -284 -58 -28
-121 -52 -142 -54 l-37 -2 -255 524 c-140 288 -255 525 -255 527 0 4 1044
-506 1052 -514z m6675 377 c43 -6 79 -12 81 -13 1 -2 -23 -40 -54 -86 -81
-121 -134 -232 -251 -525 -57 -143 -121 -289 -143 -325 -75 -128 -184 -226
-324 -291 -62 -29 -74 -31 -134 -26 -141 13 -284 118 -333 245 -19 47 -22 76
-22 162 1 127 29 232 103 387 88 186 173 288 299 363 78 46 219 95 311 108 92
13 374 14 467 1z m-4495 -2290 c-4 -3 -79 -64 -167 -134 -188 -151 -458 -381
-602 -512 -56 -51 -105 -93 -110 -93 -4 0 -301 293 -660 652 l-652 652 98 51
c156 82 247 150 386 290 139 139 201 221 285 379 l53 98 688 -688 c379 -379
685 -691 681 -695z m2628 344 c0 -10 -9 -54 -19 -98 -182 -752 -1140 -2091
-2380 -3325 -948 -944 -1908 -1686 -2696 -2085 -269 -137 -466 -211 -637 -240
-48 -8 -48 -5 -9 148 77 296 288 712 607 1194 875 1320 2457 2902 3789 3788
280 186 457 290 700 410 224 110 355 163 500 201 112 29 145 30 145 7z m2133
-5123 c29 -59 32 -73 32 -155 -1 -140 -15 -161 -269 -413 -191 -189 -217 -211
-271 -232 -85 -31 -206 -25 -285 14 -46 23 -261 234 -1252 1224 l-1197 1195
86 96 c151 168 391 451 531 624 l136 168 1228 -1228 c1118 -1117 1232 -1234
1261 -1293z"/>
</g>
</svg>
