<?xml version="1.0" encoding="UTF-8" standalone="no"?><!DOCTYPE svg PUBLIC "-//W3C//DTD SVG 1.1//EN" "http://www.w3.org/Graphics/SVG/1.1/DTD/svg11.dtd"><svg width="100%" height="100%" viewBox="0 0 13892 13892" version="1.1" xmlns="http://www.w3.org/2000/svg" xmlns:xlink="http://www.w3.org/1999/xlink" xml:space="preserve" xmlns:serif="http://www.serif.com/" style="fill-rule:evenodd;clip-rule:evenodd;stroke-linecap:round;stroke-linejoin:round;stroke-miterlimit:1.5;"><g id="Ebene3"><path d="M3989.07,2329.77l28.095,-28.091l8307.48,8307.49c202.605,202.605 316.425,477.397 316.425,763.924c0,286.523 -113.82,561.315 -316.425,763.921c-135.257,135.256 -276.111,276.115 -411.368,411.371c-202.605,202.605 -477.397,316.426 -763.925,316.426c-286.527,-0 -561.319,-113.821 -763.924,-316.426c-2185.54,-2185.54 -8307.48,-8307.48 -8307.48,-8307.48l28.09,-28.09c0,-0 -735.992,-1514.36 -1261.6,-2595.83c-76.513,-157.437 -44.811,-346.066 78.961,-469.842c123.776,-123.772 312.405,-155.473 469.841,-78.96c1081.47,525.601 2595.83,1261.6 2595.83,1261.6l-0,-0.004Z" style="fill:none;stroke:#000;stroke-width:1191.79px;"/><path d="M6627.69,9387.59c-2329.35,2329.35 -4719.86,3721.12 -5334.95,3106.04c-615.081,-615.081 776.688,-3005.59 3106.04,-5334.95m2407.27,-2068.11c1387.84,-993.488 2529.59,-1436.01 2927.67,-1037.93c398.079,398.08 -44.446,1539.83 -1037.93,2927.67m4392.76,-5093.21c0,-0 -2442.94,-1162.6 -3307.41,383.424c-864.464,1546.03 499.915,2300.46 1188.08,1964.99c1300.64,-634.042 544.221,-1827.24 2119.33,-2348.41Z" style="fill:none;stroke:#000;stroke-width:1191.79px;"/><path d="M3669.59,2423.67c-0,-0 -0,1313.19 -1473.96,1483.5" style="fill:none;stroke:#000;stroke-width:1191.79px;"/></g></svg>