<?xml version="1.0" encoding="UTF-8" standalone="no"?><!DOCTYPE svg PUBLIC "-//W3C//DTD SVG 1.1//EN" "http://www.w3.org/Graphics/SVG/1.1/DTD/svg11.dtd"><svg width="100%" height="100%" viewBox="0 0 3334 3334" version="1.1" xmlns="http://www.w3.org/2000/svg" xmlns:xlink="http://www.w3.org/1999/xlink" xml:space="preserve" xmlns:serif="http://www.serif.com/" style="fill-rule:evenodd;clip-rule:evenodd;stroke-linecap:round;stroke-linejoin:round;stroke-miterlimit:1.5;"><g id="Ebene3"><path d="M1149.82,833.518l5.531,-5.532l1595.39,1595.39c50.638,50.638 79.086,119.318 79.086,190.931c-0,71.613 -28.448,140.293 -79.086,190.93c-0.002,0.002 -0.003,0.004 -0.005,0.005c-105.448,105.448 -276.413,105.448 -381.861,0c-460.67,-460.67 -1595.39,-1595.39 -1595.39,-1595.39l5.532,-5.532c0,0 -120.32,-247.567 -219.992,-452.65c-19.26,-39.629 -11.28,-87.112 19.876,-118.268c31.157,-31.157 78.639,-39.137 118.269,-19.876c205.082,99.672 452.65,219.992 452.65,219.992Z" style="fill:none;stroke:#000;stroke-width:190.14px;"/><path d="M1617.33,2275.41c-458.691,458.69 -877.34,680.671 -998.46,559.551c-121.12,-121.12 100.861,-539.769 559.551,-998.46m644.867,-578.08c252.457,-233.136 382.116,-192.677 460.505,-114.288c78.389,78.389 127.594,271.453 -88.383,486.41m746.262,-884.19c0,-0 -481.058,-228.937 -651.286,75.503c-170.228,304.44 98.442,453.001 233.953,386.941c256.119,-124.854 107.167,-359.816 417.333,-462.444Z" style="fill:none;stroke:#000;stroke-width:193.88px;stroke-linecap:butt;"/><path d="M1086.9,852.009c0,-0 0,258.59 -290.249,292.126" style="fill:none;stroke:#000;stroke-width:190.14px;"/></g></svg>