<?xml version="1.0" encoding="UTF-8" standalone="no"?><!DOCTYPE svg PUBLIC "-//W3C//DTD SVG 1.1//EN" "http://www.w3.org/Graphics/SVG/1.1/DTD/svg11.dtd"><svg width="100%" height="100%" viewBox="0 0 3334 3334" version="1.1" xmlns="http://www.w3.org/2000/svg" xmlns:xlink="http://www.w3.org/1999/xlink" xml:space="preserve" xmlns:serif="http://www.serif.com/" style="fill-rule:evenodd;clip-rule:evenodd;stroke-linecap:round;stroke-linejoin:round;stroke-miterlimit:1.5;"><g id="Ebene3"><path d="M937.984,568.797l7.072,-7.071l2091.17,2091.17c51,51 79.651,120.171 79.651,192.296c0,72.124 -28.651,141.295 -79.651,192.295c-34.047,34.047 -69.503,69.504 -103.55,103.551c-51,51 -120.171,79.651 -192.296,79.651c-72.125,0 -141.296,-28.651 -192.296,-79.651c-550.146,-550.147 -2091.17,-2091.17 -2091.17,-2091.17l7.071,-7.071c0,0 -185.265,-381.197 -317.571,-653.425c-19.26,-39.63 -11.28,-87.112 19.876,-118.269c31.157,-31.156 78.639,-39.136 118.269,-19.876c272.228,132.305 653.425,317.571 653.425,317.571Z" style="fill:none;stroke:inherit;stroke-width:190.14px;"/><path d="M1602.18,2345.4c-586.347,586.347 -1188.09,936.685 -1342.92,781.857c-154.829,-154.829 195.509,-756.57 781.856,-1342.92m605.961,-520.586c349.348,-250.082 636.75,-361.475 736.956,-261.27c100.205,100.205 -11.188,387.607 -261.27,736.956m1105.75,-1282.07c-0,0 -614.941,-292.651 -832.544,96.516c-217.604,389.168 125.839,579.074 299.064,494.63c327.399,-159.602 136.992,-459.955 533.48,-591.146Z" style="fill:none;stroke:inherit;stroke-width:193.88px;"/><path d="M857.563,592.434c0,-0 0,330.558 -371.028,373.428" style="fill:none;stroke:inherit;stroke-width:190.14px;"/></g></svg>