<?xml version="1.0" standalone="no"?>
<!DOCTYPE svg PUBLIC "-//W3C//DTD SVG 20010904//EN"
 "http://www.w3.org/TR/2001/REC-SVG-20010904/DTD/svg10.dtd">
<svg version="1.0" xmlns="http://www.w3.org/2000/svg"
 width="1065.000000pt" height="1028.000000pt" viewBox="0 0 1065.000000 1028.000000"
 preserveAspectRatio="xMidYMid meet">

<g transform="translate(0.000000,1028.000000) scale(0.100000,-0.100000)" stroke="none">
<path d="M515 10265 c-187 -41 -363 -177 -443 -345 -43 -89 -72 -207 -72 -287
0 -52 23 -170 42 -218 6 -16 233 -487 503 -1045 317 -653 495 -1031 499 -1060
16 -107 -7 -81 1024 -1112 l977 -978 -81 -82 c-1109 -1134 -1926 -2202 -2365
-3092 -140 -283 -229 -521 -285 -761 -25 -108 -28 -139 -28 -305 -1 -164 2
-194 22 -264 73 -254 244 -425 498 -498 70 -20 100 -23 264 -22 166 0 197 3
305 28 456 107 980 362 1620 789 667 446 1347 1007 2109 1741 l207 200 1342
-1341 c841 -840 1366 -1357 1408 -1386 419 -293 981 -287 1391 15 99 72 512
484 586 583 68 91 155 267 186 376 95 333 43 682 -144 980 -47 74 -222 253
-1492 1524 l-1438 1440 97 145 c302 453 563 961 682 1329 33 102 81 304 81
342 0 45 9 48 90 32 104 -20 305 -19 404 2 324 69 678 321 886 631 90 135 148
256 249 517 84 217 148 355 199 429 113 164 269 275 533 378 119 46 167 75
204 124 107 140 77 352 -63 450 -93 64 -504 213 -787 284 -327 83 -554 114
-840 114 -370 -1 -665 -68 -931 -214 -194 -106 -399 -294 -523 -480 -134 -199
-262 -502 -311 -735 -27 -130 -36 -358 -18 -475 l14 -87 -46 -7 c-84 -11 -266
-54 -361 -85 -368 -119 -876 -380 -1329 -682 l-145 -97 -1065 1064 c-586 585
-1080 1072 -1098 1081 -19 9 -61 22 -95 29 -45 10 -345 151 -1083 509 -561
273 -1047 503 -1080 512 -87 23 -216 27 -299 10z m985 -1015 c454 -221 829
-405 834 -410 14 -14 -14 -174 -48 -274 -51 -147 -107 -237 -216 -346 -154
-155 -336 -242 -590 -284 l-35 -6 -414 850 c-248 511 -410 857 -407 866 4 11
14 14 29 10 12 -3 393 -186 847 -406z m7650 29 c94 -10 390 -65 399 -75 3 -2
-25 -35 -61 -72 -170 -172 -273 -350 -422 -728 -103 -263 -138 -338 -199 -429
-87 -128 -231 -252 -384 -329 -176 -88 -432 -29 -598 138 -212 214 -220 536
-23 931 87 173 182 295 298 381 229 168 554 229 990 183z m439 -7479 c45 -94
61 -162 61 -265 0 -106 -18 -184 -62 -269 -46 -88 -486 -528 -574 -574 -85
-44 -163 -62 -269 -62 -104 0 -173 16 -265 61 -60 30 -317 285 -3387 3353
l-3322 3320 132 46 c404 140 694 387 879 752 32 61 75 165 95 230 l38 118
3321 -3323 c3102 -3103 3324 -3326 3353 -3387z m-2238 5489 c33 -17 44 -51 43
-139 -2 -252 -154 -647 -436 -1132 -76 -132 -234 -385 -252 -405 -9 -10 -128
104 -515 491 l-503 503 88 58 c626 408 1213 660 1493 639 35 -3 72 -9 82 -15z
m-3171 -3204 l685 -685 -45 -46 c-74 -75 -516 -493 -650 -614 -814 -733 -1609
-1309 -2260 -1639 -400 -203 -660 -287 -865 -279 -125 4 -129 8 -133 132 -8
205 76 467 279 866 344 679 969 1530 1739 2370 162 177 551 580 558 580 4 0
315 -308 692 -685z"/>
</g>
</svg>
