<svg width="177" height="177" viewBox="0 0 177 177" fill="none" xmlns="http://www.w3.org/2000/svg">
<path d="M127.219 154.897C113.506 154.897 101.781 150.033 92.0435 140.305C82.3062 130.577 77.4375 118.863 77.4375 105.164C77.4375 103.437 77.5527 101.595 77.7832 99.638H129.984C131.137 98.3717 131.972 94.6878 132.491 88.5863C133.009 82.4849 132.75 78.801 131.713 77.5346L119.959 55.9493C122.609 55.6039 125.029 55.4312 127.219 55.4312C140.932 55.4312 152.657 60.2951 162.394 70.0229C172.131 79.7507 177 91.4644 177 105.164C177 118.863 172.131 130.577 162.394 140.305C152.657 150.033 140.932 154.897 127.219 154.897ZM119.959 88.5863H29.2119C28.0596 87.4351 27.4834 85.9961 27.4834 84.2693C27.4834 82.5424 28.0596 81.0459 29.2119 79.7795L70.6963 1.89951C71.7334 0.633171 73.0298 0 74.5854 0C76.1411 0 77.4375 0.633171 78.4746 1.89951L119.959 79.7795C121.111 81.0459 121.659 82.5424 121.601 84.2693C121.543 85.9961 120.996 87.4351 119.959 88.5863ZM66.375 105.164C66.375 114.489 68.334 123.209 72.252 131.325C76.1699 139.441 81.5859 146.378 88.5 152.134V171.474C88.5 172.971 87.9526 174.266 86.8579 175.36C85.7632 176.453 84.4668 177 82.9688 177H5.53125C4.0332 177 2.73682 176.453 1.64209 175.36C0.547363 174.266 0 172.971 0 171.474V94.1122C0 92.6156 0.547363 91.3205 1.64209 90.2268C2.73682 89.1332 4.0332 88.5863 5.53125 88.5863H16.7666C17.2275 94.6878 18.0342 98.3717 19.1865 99.638H66.7207C66.4902 102.401 66.375 104.243 66.375 105.164Z" fill="#D6D6D6"/>
</svg>
