<?xml version="1.0" standalone="no"?>
<!DOCTYPE svg PUBLIC "-//W3C//DTD SVG 20010904//EN"
 "http://www.w3.org/TR/2001/REC-SVG-20010904/DTD/svg10.dtd">
<svg version="1.0" xmlns="http://www.w3.org/2000/svg"
 width="256.000000pt" height="256.000000pt" viewBox="0 0 256.000000 256.000000"
 preserveAspectRatio="xMidYMid meet">

<g transform="translate(0.000000,256.000000) scale(0.100000,-0.100000)"
 stroke="none">
<path d="M521 2294 c-41 -7 -78 -11 -84 -7 -5 3 -19 1 -30 -5 -12 -6 -44 -21
-72 -33 -126 -54 -161 -75 -203 -118 -54 -56 -37 -96 44 -105 37 -5 132 -57
151 -83 10 -14 30 -41 46 -60 15 -20 27 -40 27 -44 0 -34 132 -151 218 -195
70 -35 85 -39 162 -41 47 -1 90 -2 97 -2 6 -1 22 -19 34 -41 13 -22 26 -40 31
-40 4 0 22 13 39 28 31 28 31 29 16 59 -16 29 -15 33 7 64 19 28 28 34 55 31
18 -1 42 -9 54 -17 20 -13 26 -12 65 11 23 14 40 30 37 35 -4 5 -26 18 -51 29
-49 23 -71 56 -57 86 13 27 17 154 5 154 -6 0 -13 14 -17 30 -4 17 -11 30 -16
30 -5 0 -9 5 -9 11 0 12 -61 84 -70 84 -3 0 -28 16 -55 35 -47 33 -81 52 -130
70 -11 4 -32 12 -46 18 -14 6 -53 13 -85 17 -32 4 -66 8 -74 10 -8 1 -48 -3
-89 -11z m196 -99 c31 -3 82 -25 158 -68 22 -12 66 -48 97 -80 55 -54 58 -61
58 -106 0 -64 -61 -185 -105 -209 -16 -9 -33 -21 -36 -26 -8 -10 -128 -12
-179 -3 -19 3 -51 14 -69 23 -43 22 -151 127 -151 148 0 9 -4 16 -9 16 -5 0
-11 10 -15 23 -5 20 -69 91 -145 160 -17 16 -31 35 -31 42 0 24 126 76 190 79
33 1 62 5 66 8 6 6 83 3 171 -7z"/>
<path d="M1890 2298 c-61 -8 -91 -16 -150 -40 -64 -27 -78 -34 -125 -68 -27
-19 -52 -35 -55 -35 -9 0 -70 -72 -70 -84 0 -6 -4 -11 -9 -11 -5 0 -12 -13
-16 -30 -4 -16 -11 -30 -17 -30 -12 0 -8 -127 5 -154 15 -31 -8 -63 -60 -86
-26 -11 -55 -25 -63 -30 -8 -5 -33 -18 -55 -28 -22 -10 -77 -44 -123 -75 -45
-32 -85 -57 -88 -57 -28 0 -394 -344 -394 -370 0 -5 -8 -18 -17 -28 -47 -46
-162 -186 -198 -238 -22 -33 -63 -81 -90 -109 -42 -41 -101 -110 -137 -160 -4
-5 -28 -32 -53 -60 -91 -101 -105 -161 -55 -237 34 -51 53 -59 123 -52 49 4
157 62 157 84 0 5 4 9 9 8 4 -2 35 17 69 41 33 24 62 42 64 40 2 -2 15 8 29
21 33 32 193 149 228 166 14 7 49 32 78 56 29 24 77 59 107 78 31 19 56 38 56
42 0 3 28 26 62 51 35 25 119 101 188 169 149 149 170 173 170 192 0 8 7 22
16 31 22 21 64 84 64 94 0 4 11 18 25 31 14 13 25 27 25 31 0 16 83 149 93
150 7 0 50 1 97 2 77 2 92 6 162 41 86 44 218 161 218 195 0 4 12 24 28 44 15
19 35 46 45 60 19 26 114 78 151 83 81 9 98 49 44 105 -42 43 -77 64 -203 118
-27 12 -60 27 -72 33 -11 6 -26 8 -31 4 -5 -3 -36 -1 -68 4 -33 6 -68 12 -79
14 -11 2 -49 -1 -85 -6z m125 -98 c0 -1 28 -3 62 -5 67 -4 193 -56 193 -80 0
-7 -14 -26 -31 -42 -76 -69 -140 -140 -145 -160 -4 -13 -10 -23 -15 -23 -5 0
-9 -7 -9 -16 0 -21 -108 -126 -151 -148 -18 -9 -50 -20 -69 -23 -51 -9 -171
-7 -179 3 -3 5 -19 17 -36 26 -44 24 -105 145 -105 209 0 45 3 52 58 106 86
87 195 144 287 151 33 2 61 5 63 7 3 3 77 -1 77 -5z m-458 -529 c21 -31 21
-35 8 -62 -8 -15 -15 -35 -15 -43 0 -8 -3 -16 -7 -18 -14 -6 -60 -72 -68 -98
-7 -22 -40 -76 -55 -90 -3 -3 -28 -34 -55 -70 -56 -73 -91 -115 -120 -143 -62
-58 -95 -87 -135 -118 -24 -19 -52 -41 -61 -49 -23 -21 -50 -42 -79 -61 -14
-9 -41 -31 -60 -49 -19 -18 -51 -40 -71 -49 -20 -9 -43 -24 -52 -33 -9 -9 -49
-38 -88 -64 -39 -26 -83 -58 -97 -71 -14 -12 -31 -23 -38 -23 -8 0 -14 -4 -14
-8 0 -8 -187 -147 -199 -147 -3 0 -26 -15 -50 -33 -47 -34 -70 -39 -89 -20
-29 29 -6 82 81 181 67 76 80 93 107 127 14 18 35 43 48 56 12 13 22 27 22 32
0 4 17 26 38 48 82 88 132 145 132 152 0 4 18 25 40 47 21 22 40 45 40 50 0
12 37 60 67 89 13 12 73 70 135 130 62 60 127 115 145 122 18 8 36 20 40 28
11 18 132 95 208 131 33 16 81 41 106 56 82 47 104 47 136 0z"/>
<path d="M1620 1420 c-11 -22 -19 -44 -16 -48 3 -5 39 -42 81 -83 42 -40 83
-81 92 -89 28 -29 63 -75 63 -85 1 -5 19 -28 40 -50 22 -22 40 -43 40 -47 0
-7 50 -64 133 -152 20 -22 37 -44 37 -48 0 -5 10 -19 23 -32 12 -13 33 -38 47
-56 27 -34 40 -51 107 -127 87 -99 110 -152 81 -181 -19 -19 -42 -14 -89 20
-24 18 -47 33 -50 33 -12 0 -199 139 -199 147 0 4 -6 8 -14 8 -7 0 -24 11 -38
23 -14 13 -58 45 -97 71 -39 26 -79 55 -88 64 -9 9 -32 24 -52 33 -20 9 -52
31 -71 49 -19 18 -46 40 -60 49 -29 19 -56 40 -79 61 -9 8 -46 38 -82 66 l-65
51 -33 -28 -33 -27 48 -47 c27 -25 77 -66 112 -91 34 -25 62 -49 62 -52 0 -4
25 -23 56 -42 30 -19 78 -54 107 -78 29 -24 64 -49 78 -56 33 -17 194 -133
226 -163 13 -13 26 -22 29 -22 3 1 33 -18 66 -42 34 -24 65 -43 69 -42 5 2 9
-2 9 -7 0 -22 108 -80 157 -84 70 -7 89 1 123 52 50 76 36 136 -55 237 -25 28
-49 55 -53 60 -36 50 -95 119 -137 160 -27 28 -68 76 -90 109 -36 52 -151 192
-197 238 -10 10 -18 22 -18 27 0 5 -56 67 -124 136 l-125 126 -21 -41z"/>
</g>
</svg>
