<svg width="62" height="62" viewBox="0 0 62 62" fill="none" xmlns="http://www.w3.org/2000/svg">
<path d="M36.963 5.11638C35.0142 4.68122 33.0253 4.45042 31.0287 4.42773C28.9827 4.44988 26.992 4.68238 25.0413 5.11638C24.6253 5.20943 24.2488 5.43023 23.9645 5.74786C23.6802 6.0655 23.5024 6.46408 23.4558 6.88781L22.993 11.044C22.9267 11.6302 22.7241 12.1928 22.4013 12.6867C22.0786 13.1805 21.6447 13.592 21.1345 13.8881C20.6242 14.1843 20.0517 14.3568 19.4628 14.392C18.8739 14.4272 18.2849 14.3241 17.743 14.0909L13.9344 12.4147C13.5478 12.2445 13.1179 12.1987 12.7041 12.2836C12.2904 12.3684 11.9132 12.5799 11.6249 12.8885C8.87045 15.8359 6.81961 19.369 5.6264 23.2226C5.50069 23.6283 5.50435 24.063 5.63688 24.4666C5.7694 24.8701 6.02421 25.2224 6.36597 25.4745L9.74719 27.9656C10.2228 28.3156 10.6094 28.7725 10.8759 29.2995C11.1424 29.8264 11.2812 30.4087 11.2812 30.9992C11.2812 31.5897 11.1424 32.1719 10.8759 32.6989C10.6094 33.2258 10.2228 33.6827 9.74719 34.0327L6.36597 36.5304C6.02465 36.7825 5.77012 37.1344 5.63762 37.5374C5.50512 37.9405 5.5012 38.3748 5.6264 38.7802C6.81714 42.6371 8.86649 46.1741 11.6205 49.1253C11.9085 49.4343 12.2856 49.6462 12.6993 49.7315C13.1131 49.8168 13.5432 49.7713 13.93 49.6014L17.7563 47.9207C18.295 47.6855 18.8815 47.5801 19.4685 47.6132C20.0554 47.6463 20.6264 47.8169 21.1353 48.1112C22.1671 48.709 22.8558 49.7608 22.9908 50.9477L23.4514 55.1039C23.4977 55.5219 23.6718 55.9155 23.9499 56.2309C24.2281 56.5464 24.5969 56.7683 25.0058 56.8664C28.9459 57.8058 33.0517 57.8058 36.9918 56.8664C37.4007 56.7683 37.7695 56.5464 38.0476 56.2309C38.3258 55.9155 38.4999 55.5219 38.5462 55.1039L39.0068 50.941C39.0692 50.3544 39.2693 49.7909 39.5906 49.2961C39.9119 48.8014 40.3455 48.3895 40.856 48.0939C41.3665 47.7983 41.9395 47.6274 42.5285 47.595C43.1176 47.5626 43.7059 47.6696 44.2458 47.9074L48.0698 49.5881C48.4566 49.758 48.8867 49.8035 49.3005 49.7182C49.7142 49.6329 50.0913 49.4211 50.3793 49.112C53.1318 46.164 55.1811 42.6309 56.3734 38.7779C56.4991 38.3723 56.4955 37.9375 56.3629 37.534C56.2304 37.1305 55.9756 36.7782 55.6338 36.526L52.257 34.0327C51.7813 33.6829 51.3945 33.2261 51.1279 32.6993C50.8612 32.1724 50.7221 31.5902 50.7219 30.9997C50.7217 30.4092 50.8603 29.8269 51.1266 29.2999C51.3929 28.7728 51.7794 28.3158 52.2548 27.9656L55.6316 25.4701C55.9725 25.2178 56.2266 24.8658 56.3587 24.4627C56.4908 24.0597 56.4944 23.6255 56.369 23.2204C55.1766 19.3669 53.1265 15.8338 50.3727 12.8863C50.0844 12.5776 49.7072 12.3662 49.2935 12.2813C48.8797 12.1964 48.4498 12.2423 48.0632 12.4124L44.2546 14.0887C43.7807 14.2996 43.2676 14.4083 42.7489 14.4075C41.8213 14.4058 40.927 14.0619 40.2373 13.4416C39.5476 12.8214 39.111 11.9684 39.0112 11.0462L38.5462 6.88559C38.4998 6.46274 38.3225 6.06493 38.0391 5.74773C37.7556 5.43054 37.3802 5.20981 36.9652 5.11638H36.963ZM30.9999 39.8563C28.6508 39.8563 26.398 38.9231 24.737 37.2621C23.0759 35.6011 22.1428 33.3482 22.1428 30.9992C22.1428 28.6501 23.0759 26.3973 24.737 24.7362C26.398 23.0752 28.6508 22.142 30.9999 22.142C33.349 22.142 35.6018 23.0752 37.2628 24.7362C38.9239 26.3973 39.857 28.6501 39.857 30.9992C39.857 33.3482 38.9239 35.6011 37.2628 37.2621C35.6018 38.9231 33.349 39.8563 30.9999 39.8563Z" fill="#EDEDED"/>
</svg>
