<svg width="79" height="79" viewBox="0 0 79 79" fill="none" xmlns="http://www.w3.org/2000/svg">
<path d="M46.0625 3.41235C46.0637 2.76566 45.8738 2.13303 45.5166 1.59392C45.1594 1.05482 44.6509 0.633287 44.0549 0.38227C43.4589 0.131252 42.802 0.0619451 42.1668 0.183054C41.5315 0.304163 40.9462 0.610288 40.4844 1.06298L21.2825 19.7661H9.96875C7.35803 19.7661 4.85423 20.8032 3.00817 22.6493C1.16211 24.4953 0.125 26.9991 0.125 29.6099V49.2317C0.125 51.8425 1.16211 54.3462 3.00817 56.1923C4.85423 58.0384 7.35803 59.0755 9.96875 59.0755H21.2759L40.4778 77.9427C40.9389 78.3972 41.5242 78.7051 42.16 78.8277C42.7957 78.9503 43.4535 78.8821 44.0506 78.6316C44.6477 78.3812 45.1573 77.9596 45.5153 77.4202C45.8733 76.8807 46.0637 76.2473 46.0625 75.5999V3.41235Z" fill="#EDEDED"/>
<path d="M53.583 27.339C53.8878 27.0334 54.2499 26.791 54.6485 26.6256C55.0472 26.4601 55.4745 26.375 55.9061 26.375C56.3377 26.375 56.7651 26.4601 57.1637 26.6256C57.5624 26.791 57.9245 27.0334 58.2293 27.339L65.7499 34.8662L73.2705 27.339C73.8866 26.7229 74.7223 26.3767 75.5936 26.3767C76.465 26.3767 77.3006 26.7229 77.9168 27.339C78.5329 27.9551 78.879 28.7908 78.879 29.6621C78.879 30.5335 78.5329 31.3691 77.9168 31.9852L70.3896 39.5059L77.9168 47.0265C78.5329 47.6426 78.879 48.4783 78.879 49.3496C78.879 50.221 78.5329 51.0566 77.9168 51.6727C77.3006 52.2889 76.465 52.635 75.5936 52.635C74.7223 52.635 73.8866 52.2889 73.2705 51.6727L65.7499 44.1456L58.2293 51.6727C57.6131 52.2889 56.7775 52.635 55.9061 52.635C55.0348 52.635 54.1991 52.2889 53.583 51.6727C52.9669 51.0566 52.6207 50.221 52.6207 49.3496C52.6207 48.4783 52.9669 47.6426 53.583 47.0265L61.1102 39.5059L53.583 31.9852C53.2774 31.6804 53.035 31.3184 52.8696 30.9197C52.7042 30.5211 52.619 30.0937 52.619 29.6621C52.619 29.2305 52.7042 28.8032 52.8696 28.4045C53.035 28.0059 53.2774 27.6438 53.583 27.339V27.339Z" fill="#EDEDED"/>
</svg>
