<svg width="73" height="73" viewBox="0 0 73 73" fill="none" xmlns="http://www.w3.org/2000/svg">
<g clip-path="url(#clip0)">
<path fill-rule="evenodd" clip-rule="evenodd" d="M40.5416 14.3056C40.5416 8.6572 33.5153 6.05961 29.838 10.3484L18.7633 23.2694C18.4777 23.6032 18.1232 23.8713 17.7241 24.0551C17.3251 24.2388 16.8909 24.334 16.4516 24.3339H16.2083C13.7882 24.3339 11.4672 25.2953 9.7559 27.0066C8.04463 28.7179 7.08325 31.0388 7.08325 33.4589V39.5423C7.08325 41.9624 8.04463 44.2834 9.7559 45.9946C11.4672 47.7059 13.7882 48.6673 16.2083 48.6673H16.4516C16.8909 48.6673 17.3251 48.7624 17.7241 48.9462C18.1232 49.13 18.4777 49.398 18.7633 49.7319L20.9289 47.8704L18.7602 49.7288L29.838 62.6559C33.5153 66.9447 40.5416 64.344 40.5416 58.6957V14.3056ZM50.5578 28.2668C51.1282 27.6966 51.9017 27.3763 52.7083 27.3763C53.5148 27.3763 54.2883 27.6966 54.8587 28.2668L58.7916 32.1997L62.7245 28.2668C63.005 27.9763 63.3407 27.7446 63.7118 27.5852C64.0829 27.4258 64.482 27.3419 64.8859 27.3384C65.2897 27.3348 65.6903 27.4118 66.0641 27.5647C66.4379 27.7177 66.7775 27.9435 67.0631 28.2291C67.3487 28.5147 67.5745 28.8543 67.7275 29.2281C67.8804 29.6019 67.9574 30.0025 67.9538 30.4063C67.9503 30.8102 67.8664 31.2093 67.707 31.5804C67.5476 31.9515 67.3159 32.2872 67.0254 32.5677L63.0925 36.5006L67.0254 40.4335C67.5794 41.0072 67.886 41.7755 67.8791 42.573C67.8722 43.3705 67.5523 44.1334 66.9883 44.6974C66.4244 45.2613 65.6615 45.5812 64.864 45.5881C64.0665 45.5951 63.2981 45.2885 62.7245 44.7344L58.7916 40.8015L54.8587 44.7344C54.285 45.2885 53.5167 45.5951 52.7192 45.5881C51.9217 45.5812 51.1588 45.2613 50.5948 44.6974C50.0309 44.1334 49.711 43.3705 49.7041 42.573C49.6971 41.7755 50.0037 41.0072 50.5578 40.4335L54.4907 36.5006L50.5578 32.5677C49.9876 31.9973 49.6672 31.2238 49.6672 30.4173C49.6672 29.6107 49.9876 28.8372 50.5578 28.2668Z" fill="#EDEDED"/>
</g>
<defs>
<clipPath id="clip0">
<rect width="73" height="73" fill="white"/>
</clipPath>
</defs>
</svg>
