<?xml version="1.0" standalone="no"?>
<!DOCTYPE svg PUBLIC "-//W3C//DTD SVG 20010904//EN"
 "http://www.w3.org/TR/2001/REC-SVG-20010904/DTD/svg10.dtd">
<svg version="1.0" xmlns="http://www.w3.org/2000/svg"
 width="958.000000pt" height="946.000000pt" viewBox="0 0 958.000000 946.000000"
 preserveAspectRatio="xMidYMid meet">

<g transform="translate(0.000000,946.000000) scale(0.100000,-0.100000)" stroke="none">
<path d="M1510 9349 c-721 -91 -1275 -660 -1360 -1394 -6 -57 -10 -596 -10
-1482 l0 -1393 2165 0 2165 0 0 2140 0 2140 -1447 -1 c-797 -1 -1477 -5 -1513
-10z m696 -631 c4 -4 0 -33 -9 -65 -15 -54 -57 -291 -57 -322 0 -11 20 -12
103 -7 404 26 751 70 1040 132 l27 6 0 -126 c0 -122 -1 -126 -22 -131 -111
-25 -639 -86 -913 -105 -88 -6 -183 -13 -212 -16 l-52 -5 -6 -42 c-8 -53 -33
-351 -30 -355 2 -2 38 6 81 17 138 35 264 52 435 58 l167 6 16 71 c8 39 18 88
22 109 3 20 10 37 15 37 5 0 66 -14 135 -31 105 -27 124 -34 118 -48 -15 -37
-64 -185 -61 -186 1 -1 27 -10 57 -20 201 -66 377 -195 481 -353 86 -130 121
-257 121 -433 -1 -435 -277 -769 -766 -928 -133 -44 -329 -87 -334 -74 -1 4
-33 55 -71 113 -38 58 -68 106 -66 108 1 1 44 9 96 18 300 48 512 145 675 309
75 75 99 107 132 176 65 134 88 293 61 421 -33 161 -159 316 -319 396 -47 23
-99 44 -115 48 -31 6 -31 5 -79 -103 -147 -332 -362 -649 -594 -876 l-101 -99
34 -117 c19 -64 37 -125 40 -134 6 -13 -14 -22 -107 -51 -63 -20 -119 -36
-125 -36 -12 0 -18 18 -47 121 l-16 56 -103 -52 c-287 -144 -543 -164 -700
-56 -56 38 -88 78 -124 156 -23 51 -27 77 -31 170 -11 280 113 542 380 801
114 111 204 178 350 260 l97 55 5 52 c3 29 10 120 16 202 6 83 13 168 16 190
l5 40 -263 3 c-145 1 -312 6 -373 10 l-110 7 -3 129 -3 128 54 -6 c171 -22
246 -27 473 -33 l250 -6 12 119 c7 65 16 161 19 212 l6 93 133 -3 c73 -2 136
-6 140 -10z"/>
<path d="M2369 7520 c-58 -10 -148 -33 -201 -50 -109 -35 -108 -32 -108 -150
0 -163 40 -573 59 -608 8 -15 104 82 208 209 123 151 264 392 332 567 l21 52
-103 -1 c-56 0 -149 -9 -208 -19z"/>
<path d="M1753 7287 c-205 -138 -368 -324 -443 -506 -75 -182 -66 -357 21
-410 98 -60 299 -20 491 96 75 45 79 49 74 78 -31 183 -59 415 -69 581 l-12
203 -62 -42z"/>
<path d="M5000 7220 l0 -2140 2195 0 2196 0 -4 1438 c-3 1292 -5 1446 -20
1527 -63 342 -210 627 -442 860 -214 213 -492 361 -802 427 l-108 23 -1507 3
-1508 2 0 -2140z m1730 1436 c267 -46 751 -96 1078 -112 78 -4 142 -10 142
-13 -1 -25 -40 -244 -44 -249 -13 -12 -650 45 -1026 93 -283 36 -400 56 -400
69 0 6 9 63 20 126 11 63 20 117 20 119 0 2 15 1 33 -2 17 -3 97 -17 177 -31z
m920 -765 c282 -73 472 -252 542 -510 32 -117 29 -331 -6 -466 -50 -193 -147
-355 -299 -502 -186 -180 -425 -309 -751 -408 -110 -33 -388 -95 -428 -95 -10
0 -39 39 -79 108 -34 59 -68 116 -76 128 -13 20 -9 21 150 47 585 96 982 316
1139 632 45 89 64 157 78 273 34 274 -105 473 -378 543 -145 37 -438 21 -702
-37 -159 -36 -397 -106 -546 -160 -69 -26 -128 -44 -131 -40 -7 7 -83 274 -83
292 0 8 3 14 8 14 40 0 244 39 416 79 260 61 441 96 566 110 52 6 109 13 125
15 17 2 107 3 200 2 136 -3 187 -7 255 -25z"/>
<path d="M142 3028 c4 -1708 -1 -1586 78 -1830 176 -537 603 -920 1168 -1050
l97 -22 1493 -3 1492 -4 0 2216 0 2215 -2165 0 -2166 0 3 -1522z m1914 741
c-9 -80 -25 -364 -26 -455 l0 -71 98 14 c143 19 355 59 468 88 54 14 104 25
111 25 10 0 13 -31 13 -130 l0 -129 -37 -10 c-80 -21 -305 -61 -458 -81 -88
-12 -169 -23 -181 -26 -20 -4 -21 -9 -27 -281 -3 -153 -4 -279 -3 -280 1 -1
29 6 61 16 100 31 283 69 415 87 154 20 430 15 529 -10 275 -70 476 -240 547
-463 8 -26 18 -93 21 -148 15 -258 -91 -479 -302 -630 -120 -86 -308 -160
-480 -189 -114 -19 -338 -38 -346 -28 -9 11 -89 242 -89 258 0 11 24 14 121
14 373 0 683 136 779 341 102 220 27 455 -180 559 -110 56 -196 73 -365 73
-207 0 -399 -30 -620 -98 l-84 -25 2 -438 c2 -400 0 -442 -16 -497 -41 -132
-121 -196 -253 -203 -240 -13 -580 191 -683 408 -23 48 -26 68 -26 155 0 93 2
104 33 165 96 187 289 359 559 497 l133 68 0 307 0 306 -330 4 c-281 2 -332 5
-340 18 -5 8 -10 68 -10 134 l0 118 43 -6 c23 -3 174 -9 334 -12 280 -6 293
-6 300 12 10 25 10 541 0 577 l-7 27 151 0 152 0 -7 -61z m1087 -330 c132 -67
501 -300 659 -416 l67 -49 -70 -108 c-51 -79 -73 -105 -82 -98 -6 5 -49 39
-95 76 -107 85 -375 262 -525 346 -64 36 -117 68 -117 72 0 7 113 198 118 198
1 0 22 -10 45 -21z"/>
<path d="M1695 2047 c-216 -117 -370 -277 -391 -406 -9 -54 31 -137 89 -186
62 -54 173 -104 243 -110 71 -7 102 6 126 55 16 31 18 70 18 342 0 288 -3 338
-19 338 -3 0 -33 -15 -66 -33z"/>
<path d="M5000 2335 l0 -2215 1523 3 1522 3 93 22 c209 49 387 124 547 230
319 212 545 526 646 896 54 203 52 122 56 1759 l4 1517 -2196 0 -2195 0 0
-2215z m1703 1440 c247 -48 836 -126 1075 -141 56 -4 105 -10 107 -14 5 -9
-29 -237 -37 -245 -12 -12 -655 68 -1058 131 -294 46 -273 40 -266 78 27 156
39 216 45 216 3 0 63 -11 134 -25z m1171 -840 c42 -47 76 -89 76 -93 -1 -4
-33 -32 -73 -64 -68 -53 -273 -242 -591 -543 l-137 -130 75 -7 c97 -9 165 -39
217 -95 53 -58 76 -111 137 -324 83 -283 96 -309 175 -352 40 -21 52 -22 262
-21 207 1 363 16 518 50 l29 7 -7 -139 c-4 -77 -10 -142 -14 -146 -14 -14
-320 -40 -536 -45 -189 -4 -242 -2 -298 11 -130 31 -221 96 -271 195 -14 27
-53 145 -86 262 -70 245 -86 284 -140 333 -61 55 -151 61 -247 16 -80 -38
-535 -508 -764 -790 l-36 -44 -125 87 -125 87 766 766 766 765 -80 -6 c-375
-27 -993 -78 -1089 -90 -66 -8 -122 -13 -124 -10 -5 5 -19 145 -23 233 l-3 53
250 3 c364 5 1206 68 1334 100 30 8 62 14 71 15 9 1 51 -37 93 -84z"/>
</g>
</svg>
