<svg width="56" height="58" viewBox="0 0 56 58" fill="none" xmlns="http://www.w3.org/2000/svg">
<rect x="26" width="4" height="55" fill="#EDEDED"/>
<rect x="1" y="30" width="4" height="55" transform="rotate(-90 1 30)" fill="#EDEDED"/>
<path d="M11.904 2.68L8.784 2.608C8.808 3.016 8.76 3.592 8.736 4.048C8.688 4.456 8.64 4.888 8.592 5.344C8.28 5.344 7.968 5.344 7.632 5.344C6.168 5.344 4.056 5.152 3.216 5.008L3.288 7.792C4.416 7.84 6.288 7.936 7.536 7.936C7.8 7.936 8.04 7.936 8.304 7.936C8.208 8.92 8.136 9.928 8.088 10.96C4.728 12.544 2.184 15.76 2.184 18.856C2.184 21.28 3.672 22.336 5.424 22.336C6.696 22.336 7.968 21.952 9.144 21.376C9.24 21.712 9.36 22.048 9.456 22.36L12.216 21.52C12.024 20.944 11.832 20.344 11.664 19.744C13.488 18.232 15.408 15.712 16.704 12.448C18.36 13.096 19.2 14.368 19.2 15.808C19.2 18.16 17.328 20.512 12.696 21.016L14.28 23.536C20.184 22.648 22.176 19.36 22.176 15.952C22.176 13.168 20.328 10.984 17.544 10.072C17.688 9.616 17.88 9.112 17.976 8.848L15.048 8.152C15.024 8.512 14.928 9.112 14.832 9.592C14.688 9.592 14.544 9.592 14.4 9.592C13.224 9.592 11.976 9.76 10.824 10.024C10.848 9.304 10.92 8.56 10.992 7.84C13.944 7.72 17.16 7.432 19.512 7L19.488 4.216C16.848 4.84 14.256 5.152 11.328 5.272C11.4 4.792 11.496 4.36 11.568 3.952C11.664 3.592 11.76 3.16 11.904 2.68ZM5.016 18.232C5.016 16.864 6.216 15.04 8.016 13.816C8.064 15.472 8.256 17.128 8.52 18.616C7.656 19.12 6.792 19.408 6.12 19.408C5.352 19.408 5.016 19 5.016 18.232ZM10.728 12.64V12.568C11.664 12.28 12.768 12.064 14.04 12.04C13.224 13.984 12.144 15.448 11.016 16.624C10.824 15.424 10.728 14.104 10.728 12.64Z" fill="#EDEDED"/>
<path d="M10.464 32.512H7.152C7.224 32.944 7.32 34.12 7.32 34.624C7.32 35.032 7.32 35.728 7.296 36.568C6.816 36.592 6.336 36.616 5.904 36.616C5.04 36.616 4.008 36.592 2.592 36.424L2.64 39.328C3.456 39.424 4.392 39.448 6 39.448C6.384 39.448 6.816 39.424 7.272 39.4C7.272 40.072 7.272 40.744 7.272 41.416C7.272 41.968 7.272 42.544 7.296 43.12C4.344 44.392 1.944 46.576 1.944 48.664C1.944 51.208 5.232 53.224 7.56 53.224C9.144 53.224 10.2 52.432 10.2 49.456C10.2 48.64 10.152 46.768 10.104 44.872C11.568 44.44 13.128 44.2 14.616 44.2C16.704 44.2 18.144 45.16 18.144 46.792C18.144 48.544 16.608 49.504 14.664 49.864C13.824 50.008 12.792 50.032 11.712 50.032L12.816 53.128C13.8 53.056 14.856 52.984 15.96 52.744C19.776 51.784 21.264 49.648 21.264 46.816C21.264 43.504 18.36 41.584 14.664 41.584C13.344 41.584 11.688 41.8 10.056 42.208C10.056 41.896 10.056 41.608 10.056 41.32C10.056 40.624 10.056 39.88 10.08 39.16C11.64 38.968 13.296 38.728 14.664 38.416L14.592 35.44C13.344 35.8 11.76 36.112 10.176 36.304C10.2 35.704 10.224 35.128 10.248 34.6C10.296 33.976 10.392 32.944 10.464 32.512ZM17.304 35.104L15.984 37.432C17.472 38.152 20.616 39.952 21.768 40.936L23.208 38.488C21.936 37.576 19.152 35.992 17.304 35.104ZM4.896 48.544C4.896 47.704 5.88 46.72 7.344 45.928C7.392 47.224 7.416 48.328 7.416 48.928C7.416 49.744 7.08 49.936 6.648 49.936C6.024 49.936 4.896 49.288 4.896 48.544Z" fill="#EDEDED"/>
<path d="M38.488 32.536L38.032 35.32C40.888 35.8 45.376 36.328 47.896 36.52L48.28 33.712C45.784 33.544 41.176 33.04 38.488 32.536ZM49.12 40.168L47.368 38.176C47.104 38.272 46.456 38.392 46 38.44C44.008 38.704 38.56 38.944 37.432 38.944C36.544 38.968 35.68 38.92 35.128 38.872L35.416 42.184C35.92 42.112 36.64 41.992 37.48 41.92C38.848 41.8 41.728 41.536 43.408 41.488C41.224 43.792 36.304 48.688 35.08 49.936C34.432 50.56 33.856 51.064 33.424 51.424L36.256 53.416C37.912 51.304 39.712 49.336 40.528 48.496C41.104 47.92 41.608 47.536 42.112 47.536C42.592 47.536 43.12 47.848 43.384 48.688C43.552 49.288 43.84 50.416 44.08 51.136C44.68 52.696 45.904 53.2 48.184 53.2C49.432 53.2 51.904 53.032 52.888 52.84L53.08 49.696C51.88 49.936 50.224 50.128 48.376 50.128C47.44 50.128 46.912 49.744 46.696 49C46.48 48.376 46.216 47.464 46 46.816C45.688 45.928 45.256 45.4 44.56 45.184C44.296 45.088 43.864 44.992 43.648 45.016C44.224 44.392 46.456 42.328 47.56 41.392C47.992 41.032 48.496 40.6 49.12 40.168Z" fill="#EDEDED"/>
<path d="M47.44 14.152C47.44 17.896 43.6 19.864 37.648 20.536L39.376 23.512C46.048 22.6 50.8 19.408 50.8 14.272C50.8 10.504 48.136 8.344 44.344 8.344C41.536 8.344 38.848 9.04 37.096 9.448C36.304 9.616 35.272 9.784 34.456 9.856L35.368 13.288C36.064 13.024 37 12.64 37.696 12.448C38.92 12.088 41.296 11.272 43.936 11.272C46.192 11.272 47.44 12.568 47.44 14.152ZM38.008 2.632L37.528 5.512C40.288 5.992 45.496 6.472 48.304 6.664L48.784 3.712C46.24 3.688 40.792 3.232 38.008 2.632Z" fill="#EDEDED"/>
</svg>
