<svg width="56" height="58" viewBox="0 0 56 58" fill="none" xmlns="http://www.w3.org/2000/svg">
<rect x="26" width="4" height="55" fill="#EDEDED"/>
<rect x="1" y="30" width="4" height="55" transform="rotate(-90 1 30)" fill="#EDEDED"/>
<path d="M22.92 5.752L21.024 3.976C20.568 4.12 19.248 4.192 18.576 4.192H5.64C4.632 4.192 3.624 4.096 2.712 3.952V7.288C3.84 7.192 4.632 7.12 5.64 7.12H18.144C17.52 8.296 15.648 10.408 13.728 11.584L16.224 13.576C18.576 11.896 20.856 8.872 21.984 7C22.2 6.64 22.656 6.064 22.92 5.752ZM13.128 8.992H9.648C9.768 9.76 9.816 10.408 9.816 11.152C9.816 15.088 9.24 17.632 6.192 19.744C5.304 20.392 4.44 20.8 3.672 21.064L6.48 23.344C13.008 19.84 13.128 14.944 13.128 8.992Z" fill="#EDEDED"/>
<path d="M16.416 32.776H13.008C13.104 33.4 13.176 34.168 13.248 35.2C13.272 35.728 13.296 36.304 13.32 36.928H5.376C4.56 36.928 3.408 36.856 2.712 36.76V39.952C3.552 39.904 4.584 39.856 5.448 39.856H12C10.08 42.592 6.12 45.976 1.44 48.184L3.648 50.68C7.44 48.664 11.328 45.328 13.44 42.568C13.488 45.04 13.488 47.44 13.488 49.048C13.488 49.744 13.248 50.056 12.648 50.056C11.832 50.056 10.536 49.96 9.456 49.768L9.72 52.888C11.088 52.984 12.432 53.032 13.896 53.032C15.72 53.032 16.608 52.144 16.584 50.608C16.536 47.368 16.44 43.36 16.368 39.856H19.464C20.112 39.856 21.024 39.904 21.792 39.928V36.736C21.216 36.832 20.088 36.928 19.296 36.928H16.296C16.296 36.304 16.272 35.728 16.272 35.2C16.272 34.456 16.32 33.52 16.416 32.776Z" fill="#EDEDED"/>
<path d="M34.336 35.248V38.536C34.936 38.488 35.968 38.44 36.616 38.44H41.248V48.232H35.152C34.408 48.232 33.544 48.16 32.8 48.04V51.52C33.592 51.424 34.432 51.4 35.152 51.4H50.968C51.52 51.4 52.528 51.424 53.224 51.52V48.04C52.6 48.136 51.832 48.232 50.968 48.232H44.608V38.44H49.672C50.368 38.44 51.208 38.488 51.928 38.536V35.248C51.232 35.32 50.392 35.392 49.672 35.392H36.616C35.944 35.392 34.96 35.32 34.336 35.248Z" fill="#EDEDED"/>
<path d="M44.728 2.392H41.032C41.2 3.424 41.224 3.928 41.224 4.6V6.448H36.088C35.176 6.448 34.456 6.424 33.64 6.328C33.736 6.904 33.76 7.864 33.76 8.392V12.544C33.76 13.192 33.712 13.96 33.64 14.56H36.952C36.904 14.08 36.88 13.336 36.88 12.784V9.28H48.784C48.496 11.416 47.872 13.696 46.648 15.448C45.304 17.392 43.192 18.808 41.2 19.552C40.216 19.936 38.896 20.296 37.816 20.488L40.312 23.368C44.584 22.264 48.184 19.72 50.104 16.168C51.28 13.984 51.928 11.68 52.336 9.376C52.432 8.896 52.624 7.984 52.816 7.456L50.728 6.184C50.32 6.328 49.744 6.448 48.736 6.448H44.56V4.6C44.56 3.928 44.608 3.424 44.728 2.392Z" fill="#EDEDED"/>
</svg>
