<svg width="557" height="538" viewBox="0 0 557 538" fill="none" xmlns="http://www.w3.org/2000/svg">
<path d="M0.64 150.36L35.2 186.072C40.096 178.296 46.72 167.064 53.344 157.56C65.728 141.144 86.464 112.92 97.984 98.52C106.336 87.864 112.096 86.424 121.888 97.656C135.712 112.92 157.312 139.992 175.168 161.016C193.312 182.616 217.216 211.416 237.952 231L268.192 197.016C240.832 172.248 216.064 146.616 197.632 126.456C180.64 108.024 157.888 78.36 138.016 59.352C116.992 38.616 98.272 40.632 78.4 63.672C60.256 84.408 38.368 114.072 24.832 127.896C16.192 137.112 9.28 143.448 0.64 150.36ZM196.192 32.568L171.136 42.936C181.792 57.912 189.28 71.736 197.632 89.88L223.552 78.648C216.928 65.4 204.544 44.664 196.192 32.568ZM234.784 16.728L210.016 28.248C220.672 42.648 228.448 55.608 237.952 73.752L263.008 61.656C256.384 48.696 243.424 28.248 234.784 16.728ZM446.176 17.016L405.28 0.599997C400.384 12.696 394.912 22.2 391.168 29.976C375.904 57.336 316.864 174.84 295.552 232.44L336.16 246.264C340.48 231 350.56 198.744 358.048 182.04C368.416 158.712 384.544 138.552 404.128 138.552C414.496 138.552 420.256 144.6 421.12 154.68C421.984 166.488 421.696 190.104 422.848 205.368C424 226.392 438.976 245.4 470.944 245.4C515.008 245.4 541.792 212.568 556.768 163.32L525.664 137.976C517.312 173.688 502.048 205.944 476.992 205.944C467.488 205.944 459.424 201.624 458.272 190.392C456.832 178.296 457.696 155.256 457.12 142.296C455.968 118.392 443.008 104.856 421.408 104.856C410.464 104.856 398.944 107.448 388.288 113.496C402.688 88.152 422.848 51.288 436.96 30.552C440.128 25.944 443.296 21.048 446.176 17.016ZM87.04 289.464L51.04 304.152C64 334.68 77.824 365.496 91.072 389.976C63.424 410.424 43.264 434.328 43.264 466.008C43.264 515.544 86.752 531.384 144.064 531.384C181.504 531.384 212.032 528.504 236.512 524.184L237.088 482.712C211.456 489.048 172.576 493.368 142.912 493.368C102.88 493.368 83.008 482.424 83.008 461.688C83.008 441.528 99.136 425.112 123.04 409.272C149.248 392.28 185.536 375.576 203.392 366.648C214.048 361.176 223.264 356.28 231.904 351.096L212.032 317.688C204.544 324.024 196.192 328.92 185.248 335.256C171.712 343.032 146.656 355.416 123.04 369.24C111.52 347.064 97.984 319.416 87.04 289.464ZM477.28 424.824C477.28 469.752 431.2 493.368 359.776 501.432L380.512 537.144C460.576 526.2 517.6 487.896 517.6 426.264C517.6 381.048 485.632 355.128 440.128 355.128C406.432 355.128 374.176 363.48 353.152 368.376C343.648 370.392 331.264 372.408 321.472 373.272L332.416 414.456C340.768 411.288 352 406.68 360.352 404.376C375.04 400.056 403.552 390.264 435.232 390.264C462.304 390.264 477.28 405.816 477.28 424.824ZM364.096 286.584L358.336 321.144C391.456 326.904 453.952 332.664 487.648 334.968L493.408 299.544C462.88 299.256 397.504 293.784 364.096 286.584Z" fill="#EDEDED"/>
</svg>
