<svg width="532" height="524" viewBox="0 0 532 524" fill="none" xmlns="http://www.w3.org/2000/svg">
<path d="M36.224 0.103994V37.256C44.576 36.68 56.96 36.392 66.176 36.392H176.48C186.848 36.392 200.384 36.68 208.16 37.256V0.103994C200.096 1.256 185.984 1.54399 177.056 1.54399H66.176C56.384 1.54399 44.288 1.256 36.224 0.103994ZM232.352 83.624L206.72 67.784C202.688 69.512 194.912 70.664 185.696 70.664H43.136C34.208 70.664 21.824 69.8 9.728 68.936V106.376C21.824 105.224 36.224 104.936 43.136 104.936H182.24C177.056 121.064 168.128 138.92 152.576 154.76C130.688 177.224 96.128 196.232 52.928 205.16L81.44 237.704C118.304 227.336 155.168 207.752 184.256 175.496C205.856 151.592 218.24 123.656 226.88 95.72C228.032 92.552 230.336 87.368 232.352 83.624ZM286.496 87.656V132.872C297.152 132.008 316.448 131.432 332.864 131.432H487.52C499.616 131.432 514.304 132.584 521.216 132.872V87.656C513.728 88.232 501.056 89.384 487.52 89.384H332.864C317.888 89.384 296.864 88.52 286.496 87.656ZM214.784 297.32L171.872 282.344C170.72 289.832 167.552 301.352 164.96 308.84C157.472 331.592 147.68 354.344 132.992 377.384C109.664 360.104 79.424 339.368 56.384 325.256L31.904 354.632C61.28 372.488 88.928 392.936 109.664 409.352C81.152 443.624 47.168 471.56 0.224001 494.312L32.48 523.4C81.152 496.904 114.272 464.936 139.616 434.408C162.656 454.28 183.392 474.44 203.552 498.056L233.216 465.224C213.632 444.488 189.44 422.312 164.096 401.576C181.088 375.08 194.048 345.992 202.688 323.24C205.568 316.616 211.04 303.944 214.784 297.32ZM329.408 290.12L302.336 318.92C323.36 333.608 359.36 365 374.336 381.128L403.712 351.176C387.008 333.608 349.568 303.656 329.408 290.12ZM293.408 481.928L317.6 519.944C358.208 513.032 395.36 496.904 424.448 479.336C470.816 451.4 509.12 411.656 531.008 372.776L508.544 332.168C490.4 371.048 452.96 415.112 403.712 444.2C375.776 460.904 338.336 475.592 293.408 481.928Z" fill="#EDEDED"/>
</svg>
