<svg width="1083" height="240" viewBox="0 0 1083 240" fill="none" xmlns="http://www.w3.org/2000/svg">
<path d="M0.536001 152.272L21.56 174.16C26.168 168.112 32.792 158.896 38.552 151.12C53.24 133.264 77.144 101.584 90.68 85.168C100.472 72.784 106.232 70.48 118.328 84.304C131.576 98.992 153.752 126.64 172.472 147.664C192.056 170.128 217.976 200.08 239.864 220.816L258.296 200.08C232.376 176.752 203.864 146.512 186.296 127.504C168.152 107.92 145.976 79.408 128.696 61.552C109.688 42.256 94.712 45.136 77.72 64.72C60.728 84.88 36.536 118 21.272 133.264C13.496 141.328 7.736 147.088 0.536001 152.272ZM186.296 31.6L169.88 38.8C179.384 52.048 189.464 70.192 196.664 85.168L213.656 77.68C207.032 63.856 193.496 42.256 186.296 31.6ZM223.448 16.912L207.32 24.4C217.112 37.36 227.48 54.928 235.256 70.192L251.672 62.128C245.048 48.592 230.936 26.992 223.448 16.912ZM432.536 12.304L407.192 1.93598C403.736 10.288 399.992 17.488 396.536 24.112C380.984 52.048 317.912 170.128 296.888 228.304L321.656 236.944C325.4 222.544 337.784 188.56 346.424 171.28C357.656 148.816 379.256 125.2 402.584 125.2C415.544 125.2 422.744 132.688 423.608 145.36C424.472 161.2 423.896 183.376 424.76 200.08C425.912 217.072 435.704 236.656 466.52 236.656C508.28 236.656 532.472 204.4 547.736 158.032L528.728 142.48C521.24 173.008 502.232 212.752 470.264 212.752C457.592 212.752 447.8 206.704 446.936 192.304C446.072 178.192 446.36 156.016 445.784 139.024C444.92 116.272 431.096 104.176 412.088 104.176C398.264 104.176 383 109.36 369.176 122.032C384.152 94.096 410.648 46.288 423.32 26.416C426.776 20.944 429.944 15.76 432.536 12.304ZM651.704 1.93598L628.952 11.44C642.2 42.832 657.464 76.528 670.712 100.144C639.896 121.744 620.888 145.072 620.888 174.736C620.888 217.936 660.056 234.064 714.2 234.064C750.2 234.064 783.32 230.608 805.208 226.864V201.232C782.744 206.992 744.44 211.024 713.048 211.024C667.544 211.024 644.792 196.048 644.792 172.144C644.792 150.256 660.92 131.248 687.704 113.968C715.928 95.248 755.672 76.24 775.256 66.16C783.608 61.84 790.808 58.096 797.432 54.064L784.76 33.616C778.712 38.512 772.664 42.256 764.312 47.152C748.472 55.792 717.368 71.056 690.296 87.472C677.624 64.72 663.224 33.616 651.704 1.93598ZM1058.36 130.096C1058.36 181.648 1009.11 209.296 939.128 217.936L952.088 239.824C1026.68 228.592 1082.84 193.456 1082.84 130.96C1082.84 89.776 1052.31 67.024 1011.42 67.024C978.296 67.024 945.464 76.24 925.304 80.848C916.664 82.864 906.872 84.592 898.808 85.168L906.296 111.952C913.208 109.072 921.56 105.904 930.488 103.024C947.48 98.128 975.704 88.624 1009.11 88.624C1038.78 88.624 1058.36 105.904 1058.36 130.096ZM937.4 0.495985L933.656 22.384C966.2 28.144 1024.38 33.904 1056.34 35.92L1059.8 13.744C1031.58 13.456 969.08 7.696 937.4 0.495985Z" fill="#EDEDED"/>
</svg>
