<svg width="1079" height="231" viewBox="0 0 1079 231" fill="none" xmlns="http://www.w3.org/2000/svg">
<path d="M26.528 4.43998V28.344C34.304 27.768 43.52 27.48 52.448 27.48H165.344C175.136 27.48 184.928 27.768 191.84 28.344V4.43998C184.928 5.59198 174.848 5.88 165.632 5.88H52.448C43.232 5.88 34.016 5.59198 26.528 4.43998ZM212.864 80.472L196.448 70.104C193.28 71.832 187.232 72.408 180.608 72.408H28.832C21.056 72.408 11.264 71.832 0.608001 70.68V94.872C10.976 94.296 21.92 94.008 28.832 94.008H181.76C176.576 114.744 165.056 139.224 147.488 157.656C123.008 183.576 87.008 202.008 46.112 210.36L63.968 230.808C100.832 220.728 136.832 203.736 167.072 170.616C188.384 147.288 201.344 117.336 209.12 88.824C209.696 86.808 211.424 83.064 212.864 80.472ZM277.376 94.296V122.52C286.304 121.656 301.568 121.08 317.408 121.08H475.52C488.48 121.08 500.576 122.232 506.336 122.52V94.296C500 94.872 489.632 95.736 475.232 95.736H317.408C301.28 95.736 286.016 94.872 277.376 94.296ZM757.749 9.33599L731.253 0.119986C730.101 6.45599 727.509 15.672 725.493 21.432C716.853 45.912 705.045 73.272 686.325 100.056C663.573 82.488 630.165 58.872 605.397 43.032L590.421 61.176C618.069 78.456 650.325 102.072 671.637 119.352C643.125 154.2 607.701 186.168 557.301 209.784L577.173 227.928C627.285 201.72 662.997 167.448 690.069 134.904C714.837 156.216 736.725 176.664 758.037 201.144L776.181 181.272C755.733 159.096 730.965 136.632 705.045 115.32C724.341 87.384 738.741 55.704 748.245 30.36C750.549 24.312 754.581 14.52 757.749 9.33599ZM877.845 7.89599L861.429 25.464C882.741 39.864 918.741 70.68 933.141 85.656L951.285 67.512C935.157 51.384 898.293 21.432 877.845 7.89599ZM853.077 200.856L868.341 224.472C916.437 215.544 952.725 197.976 981.525 179.832C1025.01 152.472 1058.71 113.304 1078.29 77.304L1064.47 52.824C1047.76 88.248 1012.63 130.872 968.277 158.808C940.917 175.8 903.477 193.368 853.077 200.856Z" fill="#EDEDED"/>
</svg>
